<svg xmlns="http://www.w3.org/2000/svg" width="420" height="1080" viewBox="0 0 420 1080" role="img" aria-label="Mock white wine bottle Seabreeze Estate">
  <defs>
    <linearGradient id="glassGrad" x1="0" y1="0" x2="0" y2="1">
      <stop offset="0%" stop-color="#cabf83"/>
      <stop offset="100%" stop-color="#847a4a"/>
    </linearGradient>
    <linearGradient id="capsuleGrad" x1="0" y1="0" x2="1" y2="1">
      <stop offset="0%" stop-color="#94b9c8"/>
      <stop offset="100%" stop-color="#4f7a89"/>
    </linearGradient>
    <linearGradient id="labelGrad" x1="0" y1="0" x2="0" y2="1">
      <stop offset="0%" stop-color="#fbffff"/>
      <stop offset="100%" stop-color="#ecf7f8"/>
    </linearGradient>
    <linearGradient id="shadowGrad" x1="0" y1="0" x2="0" y2="1">
      <stop offset="0%" stop-color="#000" stop-opacity="0.15"/>
      <stop offset="100%" stop-color="#000" stop-opacity="0"/>
    </linearGradient>
    <filter id="softShadow" x="-20%" y="-20%" width="140%" height="140%">
      <feDropShadow dx="0" dy="8" stdDeviation="8" flood-color="#000" flood-opacity="0.18"/>
    </filter>
  </defs>

  <ellipse cx="210" cy="1010" rx="98" ry="20" fill="#000" fill-opacity="0.12"/>

  <g filter="url(#softShadow)">
    <rect x="174" y="48" width="72" height="160" rx="16" fill="url(#capsuleGrad)"/>
    <rect x="180" y="78" width="60" height="8" rx="4" fill="#fff" opacity="0.25"/>
    <rect x="184" y="122" width="52" height="7" rx="3.5" fill="#fff" opacity="0.17"/>

    <rect x="184" y="196" width="52" height="152" rx="22" fill="url(#glassGrad)"/>

    <path d="M184 332 C184 356 166 370 150 388 C130 410 126 438 126 472 L126 882 C126 936 149 962 210 962 C271 962 294 936 294 882 L294 472 C294 438 290 410 270 388 C254 370 236 356 236 332 Z" fill="url(#glassGrad)"/>

    <path d="M137 496 C137 430 154 396 178 380" stroke="#fff" stroke-width="18" stroke-linecap="round" stroke-opacity="0.19"/>
    <path d="M286 520 C286 468 272 426 244 398" stroke="#fff" stroke-width="13" stroke-linecap="round" stroke-opacity="0.11"/>
    <rect x="120" y="458" width="180" height="8" fill="#000" opacity="0.08"/>

    <rect x="112" y="560" width="196" height="264" rx="10" fill="url(#labelGrad)" stroke="#b7d6dc" stroke-width="2"/>
    <rect x="134" y="586" width="152" height="2" fill="#5f93a1" opacity="0.75"/>
    <rect x="134" y="796" width="152" height="2" fill="#5f93a1" opacity="0.75"/>

    <text x="210" y="638" text-anchor="middle" font-size="28" letter-spacing="4" fill="#447180" font-family="Georgia, 'Times New Roman', serif">SEABREEZE</text>
    <text x="210" y="686" text-anchor="middle" font-size="20" letter-spacing="2.2" fill="#64815f" font-family="'Avenir Next', Arial, sans-serif">CHARDONNAY</text>
    <text x="210" y="726" text-anchor="middle" font-size="17" letter-spacing="1.8" fill="#5d6d72" font-family="'Avenir Next', Arial, sans-serif">SONOMA COAST</text>

    <path d="M157 756 H263" stroke="#5f93a1" stroke-width="1.5" opacity="0.6"/>
    <text x="210" y="777" text-anchor="middle" font-size="14" letter-spacing="2.6" fill="#5d6d72" opacity="0.9" font-family="'Avenir Next', Arial, sans-serif">VINTAGE 2022</text>

    <path d="M168 604 C182 589 196 589 210 604 C224 619 238 619 252 604" stroke="#6aa7b6" stroke-width="4" fill="none" stroke-linecap="round"/>
    <rect x="132" y="858" width="156" height="70" rx="4" fill="url(#shadowGrad)" opacity="0.14"/>
  </g>
</svg>
